<svg width="40" height="40" viewBox="0 0 40 40" fill="#F7F5F5" xmlns="http://www.w3.org/2000/svg">
	<path d="M29.5331 40H10.4669C4.70815 40 0 35.2918 0 29.5331V10.4669C0 4.70817 4.70815 0 10.4669 0H29.5331C35.2918 0 40 4.70817 40 10.4669V29.5331C40 35.2918 35.2918 40 29.5331 40ZM10.4669 1.55642C5.56418 1.55642 1.5564 5.5642 1.5564 10.4669V29.5331C1.5564 34.4358 5.56418 38.4436 10.4669 38.4436H29.5331C34.4358 38.4436 38.4436 34.4358 38.4436 29.5331V10.4669C38.4436 5.5642 34.4358 1.55642 29.5331 1.55642H10.4669Z"/>
	<path d="M20 29.3385C14.8638 29.3385 10.6615 25.1362 10.6615 20C10.6615 14.8638 14.8638 10.6615 20 10.6615C25.1362 10.6615 29.3385 14.8638 29.3385 20C29.3385 25.1362 25.1362 29.3385 20 29.3385ZM20 12.2179C15.7198 12.2179 12.2179 15.7198 12.2179 20C12.2179 24.2802 15.7198 27.7821 20 27.7821C24.2801 27.7821 27.7821 24.2802 27.7821 20C27.7821 15.7198 24.2801 12.2179 20 12.2179Z"/>
	<path d="M30.1557 10.5837C29.3386 10.5837 28.6771 9.92218 28.6771 9.10506C28.6771 8.28794 29.3386 7.62646 30.1557 7.62646C30.9728 7.62646 31.6343 8.28794 31.6343 9.10506C31.6343 9.92218 30.9728 10.5837 30.1557 10.5837ZM30.1557 9.02724C30.1168 9.02724 30.0779 9.06615 30.0779 9.10506C30.0779 9.22179 30.2724 9.22179 30.2724 9.10506C30.2335 9.06615 30.1946 9.02724 30.1557 9.02724Z"/>
</svg>
