<svg width="100" height="100" viewBox="0 0 100 100" fill="#F7F5F5" xmlns="http://www.w3.org/2000/svg">
<path d="M50 94.4838C41.2043 94.4838 32.6061 91.8755 25.2928 86.9889C17.9795 82.1023 12.2794 75.1567 8.91347 67.0306C5.54752 58.9044 4.66684 49.9627 6.38279 41.336C8.09874 32.7094 12.3342 24.7853 18.5537 18.5658C24.7732 12.3463 32.6973 8.11082 41.324 6.39487C49.9506 4.67892 58.8924 5.5596 67.0185 8.92556C75.1447 12.2915 82.0903 17.9916 86.9769 25.3049C91.8635 32.6182 94.4717 41.2164 94.4717 50.012C94.4578 61.8024 89.7679 73.1059 81.4309 81.443C73.0938 89.78 61.7903 94.4699 50 94.4838ZM50 6.74827C41.4432 6.74827 33.0786 9.28564 25.9639 14.0395C18.8492 18.7934 13.304 25.5503 10.0294 33.4557C6.75491 41.3611 5.89815 50.06 7.56749 58.4524C9.23684 66.8447 13.3573 74.5536 19.4079 80.6042C25.4584 86.6547 33.1673 90.7752 41.5596 92.4445C49.952 94.1139 58.6509 93.2571 66.5563 89.9826C74.4617 86.708 81.2186 81.1628 85.9725 74.0481C90.7264 66.9334 93.2638 58.5688 93.2638 50.012C93.251 38.5417 88.6887 27.5448 80.5779 19.4341C72.4672 11.3233 61.4703 6.76106 50 6.74827Z"/>
<path d="M50 100C40.1104 100 30.4429 97.0672 22.2202 91.5726C13.9975 86.078 7.58891 78.2683 3.80489 69.1313C0.0208637 59.9943 -0.968597 49.9404 0.961641 40.241C2.89188 30.5417 7.6551 21.6325 14.6489 14.6404C21.6428 7.64824 30.553 2.88718 40.2529 0.959285C49.9527 -0.96861 60.0064 0.0232812 69.1425 3.80951C78.2786 7.59574 86.0867 14.0062 91.5793 22.2303C97.0719 30.4543 100.002 40.1225 100 50.0121C99.9819 63.2662 94.7078 75.9722 85.3346 85.3431C75.9614 94.7141 63.2541 99.9851 50 100ZM50 1.61059C40.43 1.61059 31.0748 4.44826 23.1175 9.76482C15.1602 15.0814 8.958 22.6381 5.29516 31.4794C1.63233 40.3207 0.673355 50.0495 2.53949 59.4358C4.40563 68.8221 9.01306 77.4444 15.7792 84.2122C22.5454 90.9801 31.1664 95.5897 40.5523 97.4582C49.9381 99.3267 59.6672 98.3701 68.5094 94.7095C77.3516 91.0489 84.9099 84.8485 90.2284 76.8925C95.547 68.9365 98.387 59.5821 98.3894 50.0121C98.3755 37.1826 93.2729 24.8826 84.2012 15.8109C75.1294 6.7391 62.8294 1.63652 50 1.62266V1.61059Z" />
<path d="M12.2282 39.8333C12.0953 38.9314 12.8966 38.0979 13.3637 37.8644C13.8307 37.6309 13.6979 37.8644 13.4643 38.5328C12.8966 40.2641 17.0639 39.3985 22.0325 38.6656C31.7724 37.2 34.4741 37.498 34.5144 39.4307C34.5466 40.8319 33.4796 41.9311 31.9818 42.531C31.5469 42.7001 31.6798 42.5632 31.7483 41.8988C31.8127 40.3326 29.578 40.099 23.5102 40.6909V40.8117C22.4432 49.4765 21.5413 56.0718 20.6072 59.2043C20.3414 60.1707 17.3055 60.2391 17.4746 59.9049C18.4732 57.0864 20.2931 50.773 22.0406 41.9109C22.1302 41.5262 22.2739 41.1561 22.4674 40.8117C21.7024 40.8761 20.9011 40.9768 20.0515 41.0775C15.1313 41.617 12.4618 41.001 12.2282 39.8333Z" />
<path d="M32.6623 54.5941C33.697 54.127 34.599 52.9272 35.0298 51.6307C35.1989 51.1958 36.0968 50.7287 35.8351 51.5622C35.2673 53.3942 33.8702 54.8961 32.4328 55.2625C31.2691 57.9602 29.3686 59.7358 27.6695 59.7358C25.6563 59.7358 23.6028 57.6018 24.1021 54.3364C24.6336 51.1394 26.7676 49.0699 28.8372 48.3733C29.4371 48.172 29.4371 48.6713 29.0707 48.937C28.4345 49.4041 27.6695 51.2039 27.2024 53.9378C26.7354 56.6717 27.1702 58.4675 28.3379 58.5359C29.1432 58.6004 30.3511 57.5696 31.1362 55.2705C30.7109 55.1789 30.3193 54.9712 30.0048 54.6706C27.8024 52.7299 28.8694 47.9304 31.4543 47.6566C33.0891 47.5237 33.991 49.7221 33.0649 53.354C32.9528 53.7742 32.8184 54.1881 32.6623 54.5941ZM31.2611 54.727C31.3617 54.3606 31.4302 53.9942 31.5308 53.5633C31.9617 51.4616 31.5308 50.2617 30.6611 50.4952C29.8558 50.7287 29.4532 53.1607 30.4638 54.1955C30.6789 54.4426 30.9573 54.6264 31.2691 54.727H31.2611Z" />
<path d="M36.6887 59.462C36.367 59.4578 36.0494 59.3893 35.7545 59.2607C35.223 62.8845 34.7238 66.025 34.4218 66.8263C34.0876 67.692 31.2007 67.7564 31.2892 67.5269C32.32 64.7084 33.6205 56.1966 34.5547 49.698C34.7238 48.5303 36.3222 48.1961 36.6887 48.1961C37.1235 48.1961 37.1557 48.2283 37.0591 49.1625L36.6242 52.8305C37.6912 49.9315 39.0401 47.9988 40.558 47.9988C41.8908 47.9988 43.5255 49.4967 42.8611 53.3942C42.1767 57.4609 39.3058 59.5949 36.6887 59.462ZM35.9558 57.5615L35.823 58.5923C36.1235 58.6943 36.44 58.7407 36.7571 58.7292C37.8563 58.7292 38.7904 57.0261 39.6601 53.9942C40.3245 51.5783 40.6587 49.2309 39.8252 49.2309C38.8911 49.2309 37.4577 52.1299 36.0243 57.4287C36.0082 57.4609 36.0082 57.5293 35.9719 57.5615H35.9558Z" />
<path d="M46.0098 53.4627C47.411 50.2979 49.2108 47.9988 50.7771 47.9988C51.8118 47.9988 52.3111 49.3638 52.1138 51.53C53.3217 49.3638 54.5297 47.9988 55.8825 47.9988C57.2354 47.9988 57.5495 49.8953 56.8811 53.3298C56.1161 57.026 55.4799 58.5279 56.0154 58.5279C56.6798 58.5279 57.9843 56.1121 59.0151 52.9634C59.148 52.5285 60.0499 52.0615 59.8204 52.895C58.7856 56.261 57.0019 59.6271 55.5846 59.6271C54.1673 59.6271 53.0157 57.7629 53.6841 54.1955C54.2196 51.0307 55.6168 49.396 54.7833 49.396C53.9499 49.396 52.8829 51.4293 51.2159 55.3631C50.0845 58.9265 49.2027 58.8258 48.5504 58.8258C47.8982 58.8258 47.9143 57.2153 48.5142 54.727C49.2148 51.6951 50.5274 49.396 49.6819 49.396C48.7477 49.396 46.7466 52.7621 45.281 58.0608C45.281 58.1293 45.2488 58.1615 45.2488 58.1937C44.9146 59.16 43.5456 59.462 43.2356 59.462C42.8007 59.462 42.7001 59.462 42.8329 58.5279L43.9684 48.9652C44.0691 48.0633 47.2701 47.9988 47.1895 48.2646C47.0768 48.9652 46.5775 50.4308 46.0098 53.4627Z" />
<path d="M63.2187 58.693C63.3833 58.7232 63.5507 58.7353 63.7179 58.7292C68.147 58.8943 72.0566 54.2599 73.2203 48.329C74.4282 42.1646 72.9545 38.1664 68.3523 38.3999C66.6568 38.5262 65.0374 39.1547 63.7007 40.2053C62.3639 41.2559 61.3705 42.6809 60.8471 44.2986C60.678 44.7294 59.7801 45.1965 60.0418 44.363C61.0404 41.001 64.644 37.4658 68.8436 37.3007C74.2148 37.0994 77.5809 41.3271 76.381 47.8619C75.1127 54.7632 70.0475 60.2955 62.6912 59.76C58.9265 59.4942 56.7241 57.4287 57.8595 53.8935C58.6286 51.6307 60.8954 50.2697 63.3314 49.9959C63.9958 45.4984 64.6641 41.166 64.9983 40.2641C65.3325 39.4307 68.2195 39.3662 68.1671 39.5998C67.5309 41.2305 66.2667 45.6957 65.1634 50.0282C65.8396 50.14 66.5004 50.3305 67.1323 50.5959C67.4665 50.7288 67.535 51.3287 67.3659 51.2643C66.58 51.0212 65.7699 50.8646 64.95 50.7972C64.2494 53.6157 63.6133 56.3295 63.3153 58.0447C63.2974 58.2627 63.2651 58.4793 63.2187 58.693ZM62.1154 58.4957C62.4174 56.4825 62.7838 53.6962 63.2187 50.8979C62.4694 51.0302 61.7716 51.3679 61.2029 51.8733C60.6342 52.3788 60.217 53.0321 59.9975 53.7606C59.1158 56.1966 60.0821 57.8957 62.1154 58.4957Z" />
<path d="M85.7264 50.2617C85.2593 52.4963 83.5924 58.5279 84.5587 58.5279C85.2271 58.5279 86.3585 56.1121 87.3772 52.9634C87.5463 52.5285 88.412 52.0615 88.1825 52.895C87.1155 56.3617 85.4163 59.6271 83.9467 59.6271C82.9481 59.6271 81.9133 58.395 81.8811 55.8262C81.0476 58.0608 80.0128 59.6271 78.7767 59.6271C76.7112 59.6271 75.0442 56.3617 76.679 49.0296C76.8763 48.1639 80.0128 48.0311 79.9444 48.2646C78.0439 55.9148 78.1124 58.5279 79.28 58.5279C80.2464 58.5279 81.6959 54.6626 82.5455 50.3946C82.5788 49.9063 82.6805 49.4252 82.8475 48.9652C83.1454 48.1317 86.2498 47.7291 86.1491 48.2284C86.0606 48.6632 85.9277 49.1947 85.7264 50.2617Z" />
</svg>
