<svg class= "social__item"
viewBox="0 0 27 40" fill="#F7F5F5" xmlns="http://www.w3.org/2000/svg">
	<path d="M13.4688 21.1859C7.75042 21.1859 3.1287 16.4422 3.1287 10.6131C3.1287 4.78392 7.75042 0 13.4688 0C19.1872 0 23.7698 4.74372 23.7698 10.6131C23.7698 16.4422 19.1481 21.1859 13.4688 21.1859ZM13.4688 2.17085C8.92543 2.17085 5.24372 5.94975 5.24372 10.6131C5.24372 15.2764 8.92543 19.0553 13.4688 19.0553C18.0122 19.0553 21.6939 15.2764 21.6939 10.6131C21.6939 5.94975 18.0122 2.17085 13.4688 2.17085Z"/>
	<path d="M13.2729 27.2116V25.081C17.738 25.081 21.3022 23.674 25.2581 20.3373C25.5323 20.0961 25.9239 20.0157 26.3156 20.0961C26.5506 20.1363 26.7073 20.3373 26.8248 20.5383L26.9423 20.8599C27.0598 21.2619 26.8639 21.6639 26.5506 21.8649L26.4723 21.9051C22.8689 25.3624 18.1688 27.2518 13.2729 27.2116Z"/>
	<path d="M13.6646 27.1357C8.76874 27.1759 4.06868 25.2864 0.504473 21.8693L0.426138 21.8291C0.112801 21.6281 -0.0830343 21.1859 0.0344671 20.8241L0.151968 20.5025C0.230303 20.2613 0.426138 20.1005 0.661141 20.0603C1.01365 19.9799 1.40532 20.1005 1.71865 20.3417C5.63537 23.6784 9.23874 25.0854 13.7038 25.0854L13.6646 27.1357Z"/>
	<path d="M3.01119 40C2.81536 40 2.61952 39.9196 2.50202 39.799C2.34535 39.6382 2.22785 39.4372 2.22785 39.196C2.22785 38.7136 2.50202 38.1508 3.24619 37.3869L13.1946 25.3266L14.0172 26.0101L13.6647 26.4121L14.3697 27.0151C14.0172 27.4573 5.59622 37.8291 4.18621 39.4774C3.91204 39.799 3.52036 39.9598 3.12869 40H3.01119Z"/>
	<path d="M23.7698 40H23.6914C23.2998 39.9598 22.9081 39.7588 22.6339 39.4774C21.2239 37.8291 12.803 27.4573 12.4505 27.0151L13.1555 26.4523L12.803 26.0503L13.5863 25.3668L23.4956 37.3869C24.2398 38.191 24.5531 38.7538 24.5531 39.2362C24.5531 39.4774 24.4356 39.6784 24.279 39.8392C24.1223 39.9598 23.9656 40 23.7698 40Z"/>
</svg>
