<svg class="social__item" 
								xmlns="http://www.w3.org/2000/svg" fill="#F7F5F5" viewBox="0 0 48 48">
									<g filter="url(#a)">
										<path d="M17.8212 8.00848c-1.8181-.07856-3.198.61223-4.066 1.4427-.434.41524-.7473.85952-.9618 1.27432-.2144.4148-.3507.7567-.3507 1.2014 0-.0396-.0098.1683-.0156.4097-.0059.2414-.0048.5669.0173.9601.0445.7863.1777 1.85.5313 3.1111.7071 2.5221 2.2994 5.8306 5.7535 9.2847 3.4541 3.4541 6.7624 5.0461 9.2847 5.7535 1.2611.3537 2.3247.4867 3.1111.5312.3932.0223.7169.0232.9583.0174.2415-.0059.451-.0156.4115-.0156.4447 0 .7866-.1363 1.2014-.3507.4148-.2145.8591-.5278 1.2743-.9618.8305-.8681 1.5213-2.2479 1.4427-4.066-.0373-.8671-.5187-1.635-1.2292-2.0903-.549-.3518-1.4014-.8979-2.5139-1.6094-1.2907-.8246-2.9416-.8835-4.2882-.1458l.0764-.0382-1.0468.4497-.0764.0538c-.2545.1786-.5696.2117-.8559.092-.802-.3354-2.0517-.9943-3.2136-2.1563-1.1619-1.1619-1.8208-2.4115-2.1562-3.2135-.1198-.2863-.0867-.6014.092-.8559l.0538-.0764.4497-1.0469-.0382.0764c.7375-1.3461.6802-2.997-.1459-4.2882-.7114-1.1125-1.2575-1.96481-1.6093-2.51386-.4554-.71047-1.2232-1.19188-2.0903-1.22916Zm-.0764 1.77604c.2493.01072.5068.1566.6701.41148.3522.5496.8986 1.4024 1.6094 2.5139.4717.7373.5049 1.7063.0833 2.4757l-.0208.0382-.4288 1.0017.0885-.1615c-.5253.7482-.6309 1.7199-.2777 2.5643.4006.958 1.1667 2.4115 2.5399 3.7847 1.3732 1.3732 2.8267 2.1393 3.7847 2.5399.8444.3532 1.816.2476 2.5642-.2778l-.1614.0886 1.0017-.4288.0382-.0209c.7691-.4213 1.738-.3862 2.4757.0851v-.0017c1.1115.7108 1.9643 1.2572 2.5139 1.6093.2549.1634.4007.4208.4115.6702.0583 1.3499-.4106 2.1951-.9514 2.7604-.2705.2827-.5637.4878-.8056.6128-.2419.1251-.4732.1511-.3854.1511-.163 0-.2489.0107-.4531.0156-.2043.005-.478.0053-.816-.0139-.676-.0382-1.609-.1536-2.7326-.4687-2.2473-.6302-5.2598-2.0514-8.507-5.2986-3.2472-3.2473-4.6686-6.26-5.2986-8.507-.315-1.1235-.4306-2.0567-.4687-2.7326-.0191-.338-.0189-.6118-.0139-.816.0049-.2042.0156-.29.0156-.4531 0 .0878.026-.1436.151-.3854.1251-.2419.3302-.5352.6129-.8056.5653-.5409 1.4105-1.00971 2.7604-.95138Z"/>
										<path d="M33.5331 40H14.4669C8.70815 40 4 35.2918 4 29.5331V10.4669C4 4.70817 8.70815 0 14.4669 0h19.0662C39.2918 0 44 4.70817 44 10.4669v19.0662C44 35.2918 39.2918 40 33.5331 40ZM14.4669 1.55642c-4.90272 0-8.9105 4.00778-8.9105 8.91048v19.0662c0 4.9027 4.00778 8.9105 8.9105 8.9105h19.0662c4.9027 0 8.9105-4.0078 8.9105-8.9105V10.4669c0-4.9027-4.0078-8.91048-8.9105-8.91048H14.4669Z"/>
									</g>
									<defs>
										<filter id="a" width="48" height="48" x="0" y="0" color-interpolation-filters="sRGB" filterUnits="userSpaceOnUse">
											<feFlood flood-opacity="0" result="BackgroundImageFix"/>
											<feColorMatrix in="SourceAlpha" result="hardAlpha" values="0 0 0 0 0 0 0 0 0 0 0 0 0 0 0 0 0 0 127 0"/>
											<feOffset dy="4"/>
											<feGaussianBlur stdDeviation="2"/>
											<feComposite in2="hardAlpha" operator="out"/>
											<feColorMatrix values="0 0 0 0 0 0 0 0 0 0 0 0 0 0 0 0 0 0 0.25 0"/>
											<feBlend in2="BackgroundImageFix" result="effect1_dropShadow_2_17"/>
											<feBlend in="SourceGraphic" in2="effect1_dropShadow_2_17" result="shape"/>
										</filter>
									</defs>
								</svg>
								