<svg width="40" height="40" viewBox="0 0 40 40" fill="none" xmlns="http://www.w3.org/2000/svg">
<path d="M13.8212 8.00848C12.0031 7.92992 10.6232 8.62071 9.75521 9.45118C9.3212 9.86642 9.00785 10.3107 8.7934 10.7255C8.57895 11.1403 8.44271 11.4822 8.44271 11.9269C8.44271 11.8873 8.43294 12.0952 8.42708 12.3366C8.42122 12.578 8.42228 12.9035 8.44444 13.2967C8.48885 14.083 8.62213 15.1467 8.97569 16.4078C9.68282 18.9299 11.2751 22.2384 14.7292 25.6925C18.1833 29.1466 21.4916 30.7386 24.0139 31.446C25.275 31.7997 26.3386 31.9327 27.125 31.9772C27.5182 31.9995 27.8419 32.0004 28.0833 31.9946C28.3248 31.9887 28.5343 31.979 28.4948 31.979C28.9395 31.979 29.2814 31.8427 29.6962 31.6283C30.111 31.4138 30.5553 31.1005 30.9705 30.6665C31.801 29.7984 32.4918 28.4186 32.4132 26.6005C32.3759 25.7334 31.8945 24.9655 31.184 24.5102C30.635 24.1584 29.7826 23.6123 28.6701 22.9008C27.3794 22.0762 25.7285 22.0173 24.3819 22.755L24.4583 22.7168L23.4115 23.1665L23.3351 23.2203C23.0806 23.3989 22.7655 23.432 22.4792 23.3123C21.6772 22.9769 20.4275 22.318 19.2656 21.156C18.1037 19.9941 17.4448 18.7445 17.1094 17.9425C16.9896 17.6562 17.0227 17.3411 17.2014 17.0866L17.2552 17.0102L17.7049 15.9633L17.6667 16.0397C18.4042 14.6936 18.3469 13.0427 17.5208 11.7515C16.8094 10.639 16.2633 9.78669 15.9115 9.23764C15.4561 8.52717 14.6883 8.04576 13.8212 8.00848ZM13.7448 9.78452C13.9941 9.79524 14.2516 9.94112 14.4149 10.196C14.7671 10.7456 15.3135 11.5984 16.0243 12.7099C16.496 13.4472 16.5292 14.4162 16.1076 15.1856L16.0868 15.2238L15.658 16.2255L15.7465 16.064C15.2212 16.8122 15.1156 17.7839 15.4688 18.6283C15.8694 19.5863 16.6355 21.0398 18.0087 22.413C19.3819 23.7862 20.8354 24.5523 21.7934 24.9529C22.6378 25.3061 23.6094 25.2005 24.3576 24.6751L24.1962 24.7637L25.1979 24.3349L25.2361 24.314C26.0052 23.8927 26.9741 23.9278 27.7118 24.3991V24.3974C28.8233 25.1082 29.6761 25.6546 30.2257 26.0067C30.4806 26.1701 30.6264 26.4275 30.6372 26.6769C30.6955 28.0268 30.2266 28.872 29.6858 29.4373C29.4153 29.72 29.1221 29.9251 28.8802 30.0501C28.6383 30.1752 28.407 30.2012 28.4948 30.2012C28.3318 30.2012 28.2459 30.2119 28.0417 30.2168C27.8374 30.2218 27.5637 30.2221 27.2257 30.2029C26.5497 30.1647 25.6167 30.0493 24.4931 29.7342C22.2458 29.104 19.2333 27.6828 15.9861 24.4356C12.7389 21.1883 11.3175 18.1756 10.6875 15.9286C10.3725 14.8051 10.2569 13.8719 10.2188 13.196C10.1997 12.858 10.1999 12.5842 10.2049 12.38C10.2098 12.1758 10.2205 12.09 10.2205 11.9269C10.2205 12.0147 10.2465 11.7833 10.3715 11.5415C10.4966 11.2996 10.7017 11.0063 10.9844 10.7359C11.5497 10.195 12.3949 9.72619 13.7448 9.78452Z" fill="#F7F5F5"/>
<path d="M29.5331 40H10.4669C4.70815 40 0 35.2918 0 29.5331V10.4669C0 4.70817 4.70815 0 10.4669 0H29.5331C35.2918 0 40 4.70817 40 10.4669V29.5331C40 35.2918 35.2918 40 29.5331 40ZM10.4669 1.55642C5.56418 1.55642 1.5564 5.5642 1.5564 10.4669V29.5331C1.5564 34.4358 5.56418 38.4436 10.4669 38.4436H29.5331C34.4358 38.4436 38.4436 34.4358 38.4436 29.5331V10.4669C38.4436 5.5642 34.4358 1.55642 29.5331 1.55642H10.4669Z" fill="#F7F5F5"/>
</svg>
