<svg width="40" height="40" viewBox="0 0 40 40" fill="none" xmlns="http://www.w3.org/2000/svg">
<path d="M21.5939 22.7733C21.5486 22.7733 21.5033 22.7733 21.4581 22.7733C20.9603 22.6438 20.9151 22.1257 20.9151 21.6507L20.5531 1.01323C20.5531 0.754183 20.6436 0.538309 20.8246 0.322435C21.0056 0.149736 21.2318 0.063387 21.5033 0.063387H21.8201C22.3179 0.106562 22.7252 0.495134 22.7252 0.970056L22.9514 19.4057C23.8112 18.2399 24.8973 16.8152 26.0286 15.3041C30.3275 9.56183 35.6673 2.438 36.7534 1.09958C37.0701 0.797357 37.4774 0.538309 37.8847 0.36561C38.2919 0.236086 38.835 0.149736 39.1517 0.495134C39.378 0.797357 39.2875 1.14276 38.9707 1.53133C37.8394 2.91292 24.9425 19.6647 22.9514 22.3847L22.7252 22.6869L22.0464 22.5142C21.9106 22.6869 21.7749 22.7733 21.5939 22.7733Z" fill="#F7F5F5"/>
<path d="M39.197 40C38.9708 40 38.7445 39.9568 38.5182 39.9137L38.4277 39.8705C38.0657 39.7409 37.7037 39.5251 37.4322 39.2229C35.3053 36.9346 26.4359 27.4793 22.861 23.7231C22.9967 26.0977 23.223 30.4152 23.3135 37.7549C23.3135 38.1003 23.1325 38.4457 22.861 38.7048C22.5442 38.9206 22.1822 39.007 21.8202 38.9206C9.64731 36.287 2.36169 23.9822 0.189584 2.30847C0.0990798 1.79038 0.0538276 1.4018 0.00857532 1.09958C-0.0366769 0.754184 0.0990798 0.408786 0.370593 0.192912C0.732611 -0.0229612 1.23039 -0.0661359 1.63766 0.106563C1.90917 0.236087 2.09018 0.53831 2.13543 1.05641C2.99522 10.9434 6.57015 33.9987 21.4129 36.9346C21.2319 30.9765 21.0961 27.1771 20.9604 24.932C20.8699 23.4209 20.8699 22.4711 20.8699 21.953C20.8699 21.5644 21.2319 21.2622 21.6392 21.2622C21.7749 21.2622 21.9107 21.3053 22.0464 21.3917L22.1369 21.3485C22.3179 21.3053 23.042 21.1326 23.404 21.478L23.6755 21.7371C30.5538 28.9904 38.9708 37.8413 39.8306 38.9206C40.0116 39.1365 40.0568 39.4387 39.9211 39.6978C39.7401 39.9136 39.4685 40 39.197 40Z" fill="#F7F5F5"/>
</svg>
